<svg xmlns="http://www.w3.org/2000/svg" viewBox="0 0 36 46" width="36" height="46">
	<defs>
		<clipPath clipPathUnits="userSpaceOnUse" id="cp1">
			<path d="M-1205 -39L161 -39L161 4045L-1205 4045Z" />
		</clipPath>
		<linearGradient id="grd1" gradientUnits="userSpaceOnUse"  x1="4.66" y1="31.13" x2="35.153" y2="0.636">
			<stop offset="0" stop-color="#43dcc7"  />
			<stop offset="0.5" stop-color="#85ffe0"  />
			<stop offset="1" stop-color="#ffffff"  />
		</linearGradient>
		<linearGradient id="grd2" gradientUnits="userSpaceOnUse"  x1="7.093" y1="43.439" x2="45.392" y2="5.14">
			<stop offset="0" stop-color="#00b8ae"  />
			<stop offset="0.5" stop-color="#85ffe0"  />
			<stop offset="1" stop-color="#c2fff0"  />
		</linearGradient>
		<linearGradient id="grd3" gradientUnits="userSpaceOnUse"  x1="5.495" y1="31.873" x2="49.955" y2="-12.588">
			<stop offset="0" stop-color="#43dcc7"  />
			<stop offset="0.5" stop-color="#85ffe0"  />
			<stop offset="0.997" stop-color="#c2fff0"  />
		</linearGradient>
	</defs>
	<style>
		tspan { white-space:pre }
		.shp0 { fill: url(#grd1) } 
		.shp1 { fill: url(#grd2) } 
		.shp2 { fill: url(#grd3) } 
		.shp3 { fill: #1894ff } 
		.shp4 { fill: #ffffff } 
		.shp5 { fill: #00de9a } 
	</style>
	<g id="Web 1366 – 8" clip-path="url(#cp1)">
		<g id="Group 152">
			<g id="Group 123">
				<path id="Path 690" class="shp0" d="M36 17.81C36 17.79 36 17.77 36 17.75C35.87 8.35 27.81 0.05 18.39 0C18.18 0 17.97 0.01 17.76 0.01C18.46 9.62 26.3 17.27 36 17.81Z" />
				<path id="Path 691" class="shp1" d="M5.97 30.34C9.26 34.71 15.89 43.79 15.87 43.78C16.44 44.57 17.36 45.09 18.39 45.09C19.42 45.09 20.34 44.57 20.91 43.78C20.91 43.78 22.62 41.41 24.76 38.51C18.56 35.91 12.28 33.11 5.97 30.34Z" />
				<path id="Path 692" class="shp2" d="M36 17.81C26.3 17.27 18.46 9.62 17.76 0.01C8.62 0.42 0.9 8.56 0.78 17.75C0.75 21.57 2.04 25.1 4.23 28.02C4.23 28.02 4.93 28.94 5.97 30.34C11.12 35.03 17.69 38.13 24.76 38.51C28.14 33.89 32.56 28 32.55 28.02C34.73 25.12 36.02 21.61 36 17.81Z" />
				<path id="Path 693" class="shp3" d="M36 17.75C35.87 8.35 27.81 0.05 18.39 0C8.97 0.05 0.91 8.35 0.78 17.75C0.75 21.57 2.04 25.1 4.23 28.02C4.25 27.96 15.93 43.77 15.87 43.78C16.44 44.57 17.36 45.09 18.39 45.09C19.42 45.09 20.34 44.57 20.91 43.78C20.85 43.77 32.53 27.96 32.55 28.01C34.74 25.1 36.03 21.57 36 17.75L36 17.75Z" />
				<path id="Path 694" class="shp4" d="M31.2 17.69C31.24 24.64 25.43 30.43 18.39 30.45C11.35 30.43 5.55 24.64 5.58 17.69C5.65 10.74 11.45 4.83 18.39 4.81C25.33 4.83 31.13 10.74 31.2 17.69Z" />
				<path id="Path 695" class="shp5" d="M20.8 14.61C20.79 13.41 20.79 12.2 20.78 10.99C20.78 10.66 20.51 10.39 20.18 10.39C18.99 10.38 17.79 10.38 16.6 10.39C16.27 10.39 16 10.66 16 10.99C15.99 12.2 15.99 13.41 15.98 14.61C15.98 14.95 15.71 15.22 15.38 15.22C14.18 15.23 12.97 15.24 11.77 15.25C11.44 15.25 11.16 15.53 11.16 15.86C11.15 17.06 11.15 18.26 11.15 19.45C11.15 19.79 11.42 20.05 11.75 20.05C12.96 20.05 14.16 20.05 15.37 20.05C15.71 20.05 15.98 20.32 15.98 20.65C15.97 21.86 15.98 23.06 15.98 24.27C15.98 24.6 16.25 24.87 16.58 24.87C17.79 24.88 18.99 24.88 20.2 24.87C20.53 24.87 20.8 24.6 20.8 24.27C20.81 23.06 20.81 21.86 20.81 20.65C20.81 20.32 21.08 20.05 21.41 20.05C22.62 20.05 23.83 20.05 25.03 20.05C25.37 20.05 25.64 19.79 25.64 19.45C25.63 18.26 25.63 17.06 25.62 15.86C25.62 15.53 25.35 15.25 25.01 15.25C23.81 15.24 22.61 15.23 21.4 15.22C21.07 15.22 20.8 14.95 20.8 14.61Z" />
			</g>
		</g>
	</g>
</svg>